<svg xmlns="http://www.w3.org/2000/svg" width="1200" height="1200" fill="none" viewBox="0 0 1200 1200"><g clip-path="url(#clip0)"><path fill="url(#paint0_linear)" d="M600 1200C931.371 1200 1200 931.371 1200 600C1200 268.629 931.371 0 600 0C268.629 0 0 268.629 0 600C0 931.371 268.629 1200 600 1200Z"/><path fill="url(#paint1_linear)" fill-rule="evenodd" d="M710.16 207.142L556.582 312.306L213.567 -188.585L367.146 -293.749L710.16 207.142Z" clip-rule="evenodd" opacity=".2"/><path fill="url(#paint2_linear)" fill-rule="evenodd" d="M296.051 314.149L142.473 419.285L-200.52 -81.6L-46.9418 -186.764L296.051 314.149Z" clip-rule="evenodd" opacity=".2"/><path fill="url(#paint3_linear)" fill-rule="evenodd" d="M428.635 271.287L275.056 376.424L-67.9309 -124.462L85.6473 -229.625L428.635 271.287Z" clip-rule="evenodd" opacity=".2"/><path fill="url(#paint4_linear)" fill-rule="evenodd" d="M582.966 306.671L429.387 411.807L86.4001 -89.0781L239.978 -194.242L582.966 306.671Z" clip-rule="evenodd" opacity=".2"/><path fill="url(#paint5_linear)" fill-rule="evenodd" d="M1008.27 254.209L854.695 359.345L511.708 -141.54L665.286 -246.704L1008.27 254.209Z" clip-rule="evenodd" opacity=".2"/><path fill="url(#paint6_linear)" fill-rule="evenodd" d="M639.049 207.066L485.471 312.229L144.813 -185.269L298.391 -290.433L639.049 207.066Z" clip-rule="evenodd" opacity=".2"/><path fill="url(#paint7_linear)" fill-rule="evenodd" d="M1282.8 875.449L1129.22 980.591L788.569 483.12L942.148 377.956L1282.8 875.449Z" clip-rule="evenodd" opacity=".2"/><path fill="url(#paint8_linear)" fill-rule="evenodd" d="M699.469 396.262L545.891 501.425L75.3601 -185.711L228.938 -290.875L699.469 396.262Z" clip-rule="evenodd" opacity=".444"/><path fill="url(#paint9_linear)" fill-rule="evenodd" d="M1112.22 1556.92L958.642 1662.08L488.084 974.918L641.662 869.755L1112.22 1556.92Z" clip-rule="evenodd" opacity=".444"/><path fill="url(#paint10_linear)" fill-rule="evenodd" d="M1158.31 1361.07L1004.73 1466.23L664.047 968.733L817.625 863.569L1158.31 1361.07Z" clip-rule="evenodd" opacity=".2"/><path fill="url(#paint11_linear)" fill-rule="evenodd" d="M425.755 366.796L272.204 471.96L-198 -214.697L-44.4218 -319.838L425.755 366.796Z" clip-rule="evenodd" opacity=".444"/><path fill="url(#paint12_linear)" fill-rule="evenodd" d="M1496.68 890.815L1343.1 995.978L872.896 309.316L1026.47 204.153L1496.68 890.815Z" clip-rule="evenodd" opacity=".444"/><path fill="url(#paint13_linear)" fill-rule="evenodd" d="M281.58 708.917L128.002 814.08L-342.196 127.424L-188.618 22.2603L281.58 708.917Z" clip-rule="evenodd" opacity=".444"/><path fill="url(#paint14_linear)" fill-rule="evenodd" d="M1531.55 1063.06L1378 1168.22L907.8 481.566L1061.38 376.424L1531.55 1063.06Z" clip-rule="evenodd" opacity=".444"/><path fill="url(#paint15_linear)" fill-rule="evenodd" d="M866.133 208.893L712.582 314.057L242.378 -372.605L395.956 -477.742L866.133 208.893Z" clip-rule="evenodd" opacity=".444"/><path fill="url(#paint16_linear)" fill-rule="evenodd" d="M919.096 1442.67L765.518 1547.84L295.314 861.18L448.893 756.017L919.096 1442.67Z" clip-rule="evenodd" opacity=".444"/><path fill="url(#paint17_linear)" fill-rule="evenodd" d="M691.866 198.066L538.287 303.229L68.0837 -383.427L221.662 -488.591L691.866 198.066Z" clip-rule="evenodd" opacity=".444"/><path fill="url(#paint18_linear)" fill-rule="evenodd" d="M325.915 1194.27L172.336 1299.43L-155.716 820.364L-2.13814 715.2L325.915 1194.27Z" clip-rule="evenodd" opacity=".444"/><path fill="url(#paint19_linear)" fill-rule="evenodd" d="M1421.45 829.664L1267.88 934.827L924.36 433.14L1077.91 327.971L1421.45 829.664Z" clip-rule="evenodd" opacity=".4"/><path fill="url(#paint20_linear)" fill-rule="evenodd" d="M743.64 1395.64L590.062 1500.8L246.518 999.109L400.096 893.945L743.64 1395.64Z" clip-rule="evenodd" opacity=".4"/><path fill="#fff" d="M276.655 637.429C276.655 643.265 275.422 648.66 272.929 653.618C270.464 658.576 267.005 662.765 262.576 666.229C258.147 669.693 252.9 672.387 246.796 674.324C240.698 676.26 234.011 677.225 226.767 677.225C218.089 677.225 210.316 676.053 203.422 673.674C196.56 671.329 189.665 667.396 182.776 661.915L194.182 643.38C199.664 647.984 204.595 651.327 209.024 653.438C213.42 655.549 217.936 656.607 222.545 656.607C228.207 656.607 232.751 655.173 236.209 652.238C239.667 649.304 241.369 645.376 241.369 640.418C241.369 638.307 241.047 636.284 240.431 634.435C239.815 632.585 238.669 630.682 237 628.718C235.331 626.782 233.04 624.644 230.111 622.353C227.209 620.067 223.456 617.22 218.847 613.849C215.329 611.356 211.865 608.804 208.522 606.164C205.151 603.496 202.129 600.682 199.375 597.66C196.647 594.638 194.449 591.294 192.747 587.569C191.078 583.844 190.227 579.595 190.227 574.844C190.227 569.362 191.373 564.344 193.658 559.827C195.944 555.311 199.085 551.471 203.04 548.302C207 545.105 211.751 542.64 217.32 540.884C222.862 539.122 228.905 538.216 235.445 538.216C242.335 538.216 248.995 539.127 255.447 540.971C261.9 542.815 267.851 545.487 273.338 549.005L262.985 565.664C255.916 560.705 248.498 558.245 240.698 558.245C235.947 558.245 231.987 559.478 228.911 561.971C225.802 564.464 224.28 567.545 224.28 571.265C224.28 574.816 225.627 578.013 228.387 580.827C231.115 583.674 235.805 587.629 242.52 592.762C249.267 597.72 254.869 602.056 259.293 605.782C263.722 609.507 267.24 612.998 269.82 616.282C272.4 619.565 274.162 622.882 275.16 626.253C276.158 629.662 276.655 633.355 276.655 637.429ZM393.933 606.196C393.933 611.329 393.404 616.871 392.318 622.795C391.26 628.718 389.416 634.233 386.836 639.245C384.256 644.291 380.885 648.453 376.691 651.709C372.496 654.993 367.216 656.607 360.796 656.607C350.122 656.607 341.705 652.353 335.547 643.849C329.416 635.345 326.34 623.673 326.34 608.804C326.34 593.585 329.449 581.498 335.695 572.558C341.913 563.613 350.389 559.156 361.064 559.156C371.209 559.156 379.216 563.378 385.08 571.767C390.998 580.216 393.933 591.682 393.933 606.196ZM431.002 604.849C431.002 594.938 429.595 585.933 426.747 577.811C423.9 569.656 419.885 562.68 414.665 556.844C409.445 551.007 403.227 546.464 396.071 543.18C388.887 539.924 380.967 538.282 372.289 538.282C362.727 538.282 354.311 540.098 347.04 543.709C339.769 547.347 333.049 553.036 326.864 560.809L326.689 541.456H292.582V740.351H326.662V656.302C330.033 660.202 333.262 663.485 336.371 666.125C339.48 668.793 342.616 670.964 345.813 672.638C349.009 674.313 352.38 675.513 355.931 676.216C359.482 676.92 363.295 677.275 367.369 677.275C376.402 677.275 384.845 675.458 392.651 671.847C400.451 668.209 407.198 663.136 412.887 656.596C418.576 650.056 423.005 642.404 426.202 633.665C429.42 624.878 431.002 615.289 431.002 604.849ZM446.165 674.002H481.151V479.362H446.165V674.002ZM630.54 674.062V541.271H595.555V612.742C595.555 619.107 595.293 624.033 594.764 627.491C594.235 630.949 593.329 634.091 592.096 636.933C587.138 647.902 578.078 653.416 564.911 653.416C554.618 653.416 547.402 649.691 543.327 642.245C541.713 639.431 540.6 636.235 539.984 632.684C539.367 629.133 539.046 624.005 539.046 617.258V541.298H504.055V616.756C504.055 621.889 504.115 626.231 504.202 629.776C504.289 633.322 504.524 636.464 504.878 639.218C505.233 641.973 505.642 644.411 506.078 646.522C506.52 648.633 507.191 650.684 508.075 652.62C511.271 660.774 516.431 666.933 523.62 671.094C530.804 675.256 539.602 677.313 550.042 677.313C559.424 677.313 567.665 675.671 574.762 672.415C581.858 669.131 588.753 663.791 595.495 656.345L595.582 674.116H630.54V674.062ZM781.396 674.002V598.718C781.396 593.585 781.336 589.216 781.249 585.611C781.162 581.973 780.955 578.864 780.573 576.196C780.218 573.556 779.782 571.211 779.253 569.187C778.724 567.164 778.107 565.167 777.404 563.204C774.207 555.256 769.047 549.125 761.858 544.789C754.675 540.447 745.876 538.276 735.404 538.276C726.022 538.276 717.78 539.918 710.684 543.202C703.587 546.485 696.693 551.853 689.951 559.271L689.891 541.5H654.638V673.996H689.918V602.438C689.918 596.253 690.153 591.442 690.595 588.011C691.036 584.58 691.887 581.356 693.147 578.335C695.433 573.027 698.956 569.007 703.675 566.28C708.398 563.553 714.027 562.173 720.595 562.173C730.887 562.173 738.104 565.898 742.178 573.289C743.76 576.104 744.878 579.3 745.495 582.818C746.111 586.336 746.433 591.469 746.433 598.184V673.964H781.391V674.002H781.396ZM926.236 665.264L872.924 598.985L918 550.713L891.491 539.307L844.571 593.651H840.846V479.389H805.565V674.029H840.846V603.496L893.602 676.664L926.236 665.264ZM1062.58 617.694V595.991L956.504 542.765V566.607L1038.7 606.611L956.504 647.138V670.451L1062.58 617.694ZM966.764 508.396C960.251 508.396 954.976 513.704 954.976 520.304C954.976 527.018 960.256 532.271 966.764 532.271C973.331 532.271 978.524 527.024 978.524 520.304C978.524 513.676 973.331 508.396 966.824 508.396H966.764ZM966.824 510.24C972.104 510.24 976.353 514.729 976.353 520.358C976.353 525.96 972.131 530.476 966.824 530.416C961.516 530.416 957.235 525.96 957.235 520.298C957.235 514.724 961.516 510.24 966.764 510.24H966.824ZM964.565 521.504H966.033C967.735 521.504 968.586 522.147 968.88 523.822C969.142 525.584 969.469 526.784 969.791 527.193H972.022C971.815 526.784 971.493 525.96 971.171 523.909C970.909 521.945 970.113 520.887 968.94 520.685V520.565C970.375 520.156 971.52 519.071 971.52 517.342C971.52 516.082 971.078 515.171 970.287 514.587C969.496 513.998 968.176 513.589 966.153 513.589C964.571 513.589 963.513 513.736 962.4 513.911V527.198H964.511V521.509H964.565V521.504ZM964.565 515.373C964.92 515.313 965.416 515.253 966.093 515.253C968.466 515.253 969.316 516.425 969.316 517.571C969.316 519.213 967.822 519.856 966.093 519.856H964.565V515.373Z"/></g><defs><linearGradient id="paint0_linear" x1="1096.43" x2="125.147" y1="283.718" y2="902.538" gradientUnits="userSpaceOnUse"><stop stop-color="#EC0677"/><stop offset=".165" stop-color="#F05A22"/><stop offset=".249" stop-color="#F26A21"/><stop offset=".373" stop-color="#F58A1F"/><stop offset=".443" stop-color="#F37720"/><stop offset=".544" stop-color="#F16222"/><stop offset=".61" stop-color="#F05A22"/><stop offset=".667" stop-color="#F05627"/><stop offset=".73" stop-color="#EF4934"/><stop offset=".795" stop-color="#EE334A"/><stop offset=".863" stop-color="#ED1669"/><stop offset=".904" stop-color="#EC0080"/></linearGradient><linearGradient id="paint1_linear" x1="291.269" x2="634.115" y1="-238.934" y2="259.256" gradientUnits="userSpaceOnUse"><stop offset=".503" stop-color="#E20782"/><stop offset="1" stop-color="#fff" stop-opacity="0"/></linearGradient><linearGradient id="paint2_linear" x1="-53.306" x2="218.517" y1="-30.797" y2="364.189" gradientUnits="userSpaceOnUse"><stop offset=".037" stop-color="#E20782" stop-opacity=".1"/><stop offset="1" stop-color="#E20782"/></linearGradient><linearGradient id="paint3_linear" x1="79.279" x2="351.102" y1="-73.659" y2="321.327" gradientUnits="userSpaceOnUse"><stop offset=".037" stop-color="#E20782" stop-opacity=".1"/><stop offset="1" stop-color="#E20782"/></linearGradient><linearGradient id="paint4_linear" x1="233.612" x2="505.435" y1="-38.275" y2="356.711" gradientUnits="userSpaceOnUse"><stop offset=".037" stop-color="#E20782" stop-opacity=".1"/><stop offset="1" stop-color="#E20782"/></linearGradient><linearGradient id="paint5_linear" x1="658.917" x2="930.74" y1="-90.737" y2="304.249" gradientUnits="userSpaceOnUse"><stop offset=".037" stop-color="#E20782" stop-opacity=".1"/><stop offset="1" stop-color="#E20782"/></linearGradient><linearGradient id="paint6_linear" x1="221.473" x2="560.292" y1="-237.099" y2="255.255" gradientUnits="userSpaceOnUse"><stop stop-color="#E20782"/><stop offset=".772" stop-color="#E20782" stop-opacity=".1"/></linearGradient><linearGradient id="paint7_linear" x1="865.218" x2="1204.04" y1="431.261" y2="923.615" gradientUnits="userSpaceOnUse"><stop offset=".213" stop-color="#E20782" stop-opacity=".1"/><stop offset="1" stop-color="#E20782"/></linearGradient><linearGradient id="paint8_linear" x1="152.169" x2="620.768" y1="-237.349" y2="442.31" gradientUnits="userSpaceOnUse"><stop stop-color="#F89E1C" stop-opacity=".2"/><stop offset=".453" stop-color="#F89E1C"/><stop offset="1" stop-color="#F89E1C" stop-opacity=".15"/></linearGradient><linearGradient id="paint9_linear" x1="564.872" x2="1033.47" y1="923.243" y2="1602.9" gradientUnits="userSpaceOnUse"><stop stop-color="#F89E1C" stop-opacity=".2"/><stop offset=".554" stop-color="#F89E1C" stop-opacity=".5"/><stop offset="1" stop-color="#F89E1C" stop-opacity=".15"/></linearGradient><linearGradient id="paint10_linear" x1="740.706" x2="1079.52" y1="916.883" y2="1409.24" gradientUnits="userSpaceOnUse"><stop offset=".228" stop-color="#E20782" stop-opacity=".1"/><stop offset="1" stop-color="#E20782"/></linearGradient><linearGradient id="paint11_linear" x1="-121.218" x2="347.033" y1="-266.367" y2="412.791" gradientUnits="userSpaceOnUse"><stop stop-color="#F89E1C" stop-opacity=".2"/><stop offset=".442" stop-color="#F89E1C"/><stop offset="1" stop-color="#F89E1C" stop-opacity=".15"/></linearGradient><linearGradient id="paint12_linear" x1="949.684" x2="1417.94" y1="257.647" y2="936.804" gradientUnits="userSpaceOnUse"><stop stop-color="#F89E1C" stop-opacity=".2"/><stop offset=".442" stop-color="#F89E1C"/><stop offset="1" stop-color="#F89E1C" stop-opacity=".15"/></linearGradient><linearGradient id="paint13_linear" x1="-265.412" x2="202.838" y1="75.749" y2="754.907" gradientUnits="userSpaceOnUse"><stop stop-color="#F89E1C" stop-opacity=".2"/><stop offset=".442" stop-color="#F89E1C"/><stop offset="1" stop-color="#F89E1C" stop-opacity=".15"/></linearGradient><linearGradient id="paint14_linear" x1="984.581" x2="1452.83" y1="429.894" y2="1109.05" gradientUnits="userSpaceOnUse"><stop stop-color="#F89E1C" stop-opacity=".2"/><stop offset=".442" stop-color="#F89E1C"/><stop offset="1" stop-color="#F89E1C" stop-opacity=".15"/></linearGradient><linearGradient id="paint15_linear" x1="319.16" x2="787.41" y1="-424.273" y2="254.885" gradientUnits="userSpaceOnUse"><stop stop-color="#F89E1C" stop-opacity=".2"/><stop offset=".442" stop-color="#F89E1C"/><stop offset="1" stop-color="#F89E1C" stop-opacity=".15"/></linearGradient><linearGradient id="paint16_linear" x1="372.102" x2="840.353" y1="809.506" y2="1488.66" gradientUnits="userSpaceOnUse"><stop stop-color="#F89E1C" stop-opacity=".1"/><stop offset=".44" stop-color="#F89E1C" stop-opacity=".5"/><stop offset="1" stop-color="#F89E1C" stop-opacity=".15"/></linearGradient><linearGradient id="paint17_linear" x1="144.87" x2="613.121" y1="-435.099" y2="244.058" gradientUnits="userSpaceOnUse"><stop stop-color="#EC008C" stop-opacity=".2"/><stop offset=".442" stop-color="#EC008C"/><stop offset=".941" stop-color="#EC008C" stop-opacity="0"/></linearGradient><linearGradient id="paint18_linear" x1="-124.77" x2="249.791" y1="702.017" y2="1246.41" gradientUnits="userSpaceOnUse"><stop stop-color="#F89E1C" stop-opacity="0"/><stop offset=".849" stop-color="#F05A22"/></linearGradient><linearGradient id="paint19_linear" x1="953.168" x2="1345.48" y1="311.681" y2="881.743" gradientUnits="userSpaceOnUse"><stop offset=".343" stop-color="#E20782" stop-opacity=".1"/><stop offset="1" stop-color="#E20782"/></linearGradient><linearGradient id="paint20_linear" x1="275.351" x2="667.661" y1="877.645" y2="1447.71" gradientUnits="userSpaceOnUse"><stop offset=".289" stop-color="#F05A22"/><stop offset=".858" stop-color="#E20782" stop-opacity=".1"/></linearGradient><clipPath id="clip0"><path fill="#fff" d="M0 600C0 268.629 268.629 0 600 0C931.371 0 1200 268.629 1200 600C1200 931.371 931.371 1200 600 1200C268.629 1200 0 931.371 0 600Z"/></clipPath></defs></svg>